PathFileType	4	(X/Y/Z)	C:/Users/opensim2020/Desktop/walking_exp_matlab/subject03_walking10_straight_02.trc																																																																																																																																					
DataRate	CameraRate	NumFrames	NumMarkers	Units	OrigDataRate	OrigDataStartFrame	OrigNumFrames																																																																																																																																	
100	100	4	45	mm	100	1858	347																																																																																																																																	
Frame#	Time	LFHD			RFHD			LBHD			RBHD			C7			T10			CLAV			STRN			RBAK			LSHO			LUPA			LELB			LFRM			LWRA			LWRB			LFIN			RSHO			RUPA			RELB			RFRM			RWRA			RWRB			RFIN			LASI			RASI			LPSI			RPSI			LTHI			LKNE			LTIB			LANK			LHEE			LTOE			RTHI			RKNE			RTIB			RANK			RHEE			RTOE			*39			*40			*41			*42			*43			*44		
		X1	Y1	Z1	X2	Y2	Z2	X3	Y3	Z3	X4	Y4	Z4	X5	Y5	Z5	X6	Y6	Z6	X7	Y7	Z7	X8	Y8	Z8	X9	Y9	Z9	X10	Y10	Z10	X11	Y11	Z11	X12	Y12	Z12	X13	Y13	Z13	X14	Y14	Z14	X15	Y15	Z15	X16	Y16	Z16	X17	Y17	Z17	X18	Y18	Z18	X19	Y19	Z19	X20	Y20	Z20	X21	Y21	Z21	X22	Y22	Z22	X23	Y23	Z23	X24	Y24	Z24	X25	Y25	Z25	X26	Y26	Z26	X27	Y27	Z27	X28	Y28	Z28	X29	Y29	Z29	X30	Y30	Z30	X31	Y31	Z31	X32	Y32	Z32	X33	Y33	Z33	X34	Y34	Z34	X35	Y35	Z35	X36	Y36	Z36	X37	Y37	Z37	X38	Y38	Z38	X39	Y39	Z39	X40	Y40	Z40	X41	Y41	Z41	X42	Y42	Z42	X43	Y43	Z43	X44	Y44	Z44	X45	Y45	Z45
																																																																																																																																								
44	0.43	-819.87659	1591.14404	918.97107	-824.11987	1598.5564	1051.6239	-954.37988	1571.14502	918.97437	-953.18439	1577.09351	1050.07349	-1007.35577	1406.93982	982.37598	-1048.24084	1091.96265	989.4267	-889.37323	1324.6427	981.3078	-848.52026	1159.95032	981.48364	-1065.11914	1232.28088	1083.65247	-939.82794	1358.61572	824.30304	-972.77655	1157.93262	765.85028	-981.43304	1033.7168	761.15662	-965.69141	904.22931	765.86768	-950.73187	787.58551	802.33075	-980.95526	790.93134	754.94714	-969.94958	707.68768	769.51379	-928.5166	1350.255	1141.53296	-901.07074	1129.71948	1212.40186	-866.48773	1022.09491	1222.11157	-818.43274	894.19702	1214.21375	-769.54126	812.19244	1169.98657	-794.78015	796.70129	1215.11926	-754.93793	735.53333	1197.85132	-880.62024	925.65295	881.09106	-891.03064	923.7384	1118.14355	-1045.72742	948.65344	920.6059	-1049.16699	959.34528	1071.10864	-881.21167	628.59436	837.66138	-832.90106	459.4512	880.38757	-828.68695	269.34378	875.23077	-779.9707	63.72533	907.21906	-814.48151	28.49187	946.57343	-627.06848	36.78954	933.72729	-991.77002	635.12518	1150.23621	-1016.22882	456.37372	1114.89893	-1123.98962	293.41376	1113.45752	-1227.5542	103.14425	1062.81482	-1278.67505	86.59197	1011.76709	-1102.13159	30.19193	1048.49365	-891.22992	1664.80762	968.90588	NaN	NaN	NaN	NaN	NaN	NaN	NaN	NaN	NaN	NaN	NaN	NaN	NaN	NaN	NaN
45	0.44	-811.90753	1592.42542	918.13635	-816.68445	1599.77002	1050.80615	-946.3609	1572.1217	917.5954	-945.70215	1577.98572	1048.65112	-999.2804	1407.92285	980.2854	-1039.82129	1092.98193	988.11584	-881.21497	1325.77014	980.32544	-840.03516	1161.24023	981.08325	-1057.61792	1233.24939	1081.30896	-930.3075	1359.30676	822.90405	-962.41528	1158.37317	764.78943	-971.08856	1034.11475	760.6676	-956.67273	904.45746	765.81946	-942.3338	787.89044	802.22662	-972.91394	791.28937	754.8515	-963.70001	707.79773	770.12708	-921.68408	1351.70276	1140.25232	-895.34222	1130.92334	1211.0542	-861.19397	1023.12372	1220.79333	-813.93591	894.8822	1213.37158	-765.28857	812.48926	1169.6217	-791.00146	797.23193	1214.56433	-751.28998	735.87555	1197.62781	-871.48883	927.28186	880.81964	-882.90308	924.35736	1117.552	-1036.89575	950.5874	919.85718	-1040.75073	960.24493	1070.3335	-874.03503	630.42749	838.08832	-827.40222	460.37872	880.1424	-824.72601	269.79739	874.65247	-779.35541	63.82816	907.50336	-814.03491	28.84087	946.67914	-625.83899	35.78085	932.65448	-983.77435	635.51398	1149.69165	-1008.27893	456.83798	1114.77039	-1118.5282	295.31805	1113.354	-1224.94128	106.71391	1063.06213	-1276.29993	91.40182	1011.84479	-1101.73584	30.16135	1048.52209	-883.82605	1665.62415	967.14105	NaN	NaN	NaN	NaN	NaN	NaN	NaN	NaN	NaN	NaN	NaN	NaN	NaN	NaN	NaN
46	0.45	-803.87103	1593.85168	917.33661	-809.26587	1601.09619	1049.94653	-938.35553	1573.33948	916.15887	-938.22302	1579.05225	1047.2627	-991.33307	1409.12793	978.22272	-1031.36523	1094.06067	986.91302	-873.03064	1327.08081	979.24518	-831.58966	1162.60559	980.66437	-1050.02771	1234.39587	1079.08704	-920.83661	1360.25732	821.55737	-951.90405	1159.06067	763.68146	-960.56061	1034.76099	760.13458	-947.23157	905.03247	765.68384	-934.87311	788.24042	802.52289	-964.45178	791.94653	754.5448	-957.02448	708.18286	770.51434	-914.73914	1353.40991	1138.93762	-889.50543	1132.37268	1209.75879	-855.84753	1024.41248	1219.51489	-809.55469	895.76202	1212.5918	-761.33295	812.90216	1169.30347	-787.46503	797.90778	1214.1123	-747.85699	736.36865	1197.61377	-862.42548	929.11194	880.37793	-875.36053	925.24359	1116.82361	-1028.03247	952.54663	919.17487	-1032.26721	961.32617	1069.66162	-867.30475	632.16797	837.93378	-821.76581	461.65131	879.99017	-821.23242	270.42517	874.16016	-778.60962	63.94463	907.97302	-813.73828	28.97243	946.50482	-625.08521	35.10303	933.44269	-975.29291	635.96655	1149.11768	-999.60559	457.32846	1114.75513	-1112.57007	297.41254	1113.35449	-1222.13257	110.78603	1063.32056	-1273.52759	96.72063	1011.74744	-1101.2124	30.21392	1048.56384	-875.03326	1672.51929	961.8576	NaN	NaN	NaN	NaN	NaN	NaN	NaN	NaN	NaN	NaN	NaN	NaN	NaN	NaN	NaN
47	0.46	-795.84369	1595.33887	916.51611	-801.80194	1602.5354	1049.09021	-930.26312	1574.6051	914.75189	-930.69556	1580.29504	1045.84534	-983.39667	1410.3645	976.16455	-1022.92969	1095.31055	985.78564	-864.89886	1328.55176	978.34436	-823.1405	1164.17871	980.15558	-1042.37781	1235.70569	1077.05994	-911.32538	1361.33948	820.19202	-941.37933	1159.89331	762.54871	-949.90839	1035.6571	759.57556	-937.62708	905.83972	765.50507	-927.93054	788.72668	803.14642	-955.52289	792.86774	754.02039	-949.88318	708.81952	770.66138	-907.7619	1355.30298	1137.63452	-883.63165	1134.04004	1208.4408	-850.49957	1025.88025	1218.20923	-805.36566	896.79871	1211.97095	-757.50244	813.38959	1169.17212	-784.09912	798.73749	1213.88159	-744.56317	736.97192	1197.83569	-853.43433	930.9505	879.79059	-866.33087	926.36945	1116.09692	-1019.15149	954.62439	918.49982	-1023.75952	962.57434	1069.00916	-860.69226	633.8299	837.44965	-816.10516	462.82419	879.72968	-818.2265	271.07047	873.88483	-778.12115	64.13313	908.13788	-813.70166	29.04542	946.28021	-624.4729	34.57914	934.92676	-966.49402	636.49719	1148.60767	-990.21863	457.82016	1114.76196	-1106.20129	299.74539	1113.34436	-1218.82227	115.0789	1063.26648	-1270.16541	102.50584	1011.47229	-1100.59412	30.24817	1048.55933	NaN	NaN	NaN	NaN	NaN	NaN	NaN	NaN	NaN	NaN	NaN	NaN	NaN	NaN	NaN	NaN	NaN	NaN
